<?xml version="1.0" encoding="UTF-8" standalone="no"?>
<svg
   xmlns:dc="http://purl.org/dc/elements/1.1/"
   xmlns:cc="http://creativecommons.org/ns#"
   xmlns:rdf="http://www.w3.org/1999/02/22-rdf-syntax-ns#"
   xmlns:svg="http://www.w3.org/2000/svg"
   xmlns="http://www.w3.org/2000/svg"
   viewBox="0 0 1066.6667 1066.6667"
   height="1066.6667"
   width="1066.6667"
   xml:space="preserve"
   id="svg2"
   version="1.1"><metadata
     id="metadata8"><rdf:RDF><cc:Work
         rdf:about=""><dc:format>image/svg+xml</dc:format><dc:type
           rdf:resource="http://purl.org/dc/dcmitype/StillImage" /></cc:Work></rdf:RDF></metadata><defs
     id="defs6"><clipPath
       id="clipPath18"
       clipPathUnits="userSpaceOnUse"><path
         id="path16"
         d="M 0,800 H 800 V 0 H 0 Z" /></clipPath></defs><g
     transform="matrix(1.3333333,0,0,-1.3333333,0,1066.6667)"
     id="g10"><g
       id="g12"><g
         clip-path="url(#clipPath18)"
         id="g14"><g
           transform="translate(573.5449,417.4365)"
           id="g20"><path
             id="path22"
             style="fill:#332d2b;fill-opacity:1;fill-rule:nonzero;stroke:none"
             d="m 0,0 c -46.424,-21.335 -109.679,-33.569 -173.545,-33.569 -63.866,0 -127.122,12.234 -173.545,33.569 -42.42,19.495 -66.749,44.629 -66.749,68.96 0,23.574 20.907,43.049 62.142,57.883 43.526,15.66 105.13,23.937 178.152,23.937 73.023,0 134.626,-8.277 178.152,-23.937 C 45.842,112.009 66.749,92.534 66.749,68.96 66.749,44.629 42.42,19.495 0,0 m 85.083,130.425 c -21.749,58.543 -129.264,94.574 -258.628,94.574 -129.365,0 -236.879,-36.031 -258.627,-94.574 -20.698,-20.867 -26.373,-43.231 -26.373,-61.465 0,-43.168 32.953,-82.085 92.788,-109.582 52.837,-24.281 121.099,-37.653 192.212,-37.653 71.112,0 139.375,13.372 192.212,37.653 59.835,27.497 92.788,66.414 92.788,109.582 0,18.234 -5.676,40.598 -26.372,61.465" /></g><g
           transform="translate(322.936,157.5654)"
           id="g24"><path
             id="path26"
             style="fill:#332d2b;fill-opacity:1;fill-rule:nonzero;stroke:none"
             d="m 0,0 c -1.139,0 -2.286,0.126 -3.407,0.376 -4.08,0.906 -7.562,3.348 -9.806,6.874 -2.244,3.525 -2.981,7.715 -2.074,11.794 l 14.225,64.011 c 1.579,7.102 7.997,12.256 15.26,12.256 1.14,0 2.287,-0.127 3.409,-0.376 8.422,-1.872 13.752,-10.247 11.88,-18.669 L 15.262,12.256 C 13.684,5.153 7.265,0 0,0" /></g><g
           transform="translate(184.7295,189.5723)"
           id="g28"><path
             id="path30"
             style="fill:#332d2b;fill-opacity:1;fill-rule:nonzero;stroke:none"
             d="m 0,0 c -2.864,0 -5.677,0.792 -8.135,2.289 -7.365,4.494 -9.703,14.142 -5.211,21.507 l 39.039,64.01 c 2.866,4.698 7.865,7.502 13.372,7.502 2.864,0 5.677,-0.792 8.134,-2.289 7.366,-4.494 9.704,-14.141 5.212,-21.506 L 13.371,7.502 C 10.506,2.805 5.507,0 0,0" /></g><g
           transform="translate(477.0625,157.5654)"
           id="g32"><path
             id="path34"
             style="fill:#332d2b;fill-opacity:1;fill-rule:nonzero;stroke:none"
             d="m 0,0 c -7.266,0 -13.684,5.153 -15.261,12.256 l -14.224,64.01 c -0.908,4.08 -0.171,8.269 2.073,11.795 2.243,3.526 5.726,5.967 9.807,6.874 1.123,0.251 2.273,0.377 3.416,0.377 7.259,0 13.674,-5.155 15.251,-12.257 L 15.287,19.044 C 16.194,14.965 15.459,10.775 13.215,7.25 10.971,3.724 7.487,1.282 3.408,0.376 2.287,0.126 1.141,0 0,0" /></g><g
           transform="translate(615.2715,189.5723)"
           id="g36"><path
             id="path38"
             style="fill:#332d2b;fill-opacity:1;fill-rule:nonzero;stroke:none"
             d="m 0,0 c -5.508,0 -10.507,2.805 -13.371,7.502 l -39.041,64.011 c -4.492,7.365 -2.154,17.012 5.212,21.505 2.456,1.498 5.268,2.291 8.134,2.291 5.507,0 10.505,-2.804 13.371,-7.502 L 13.345,23.796 C 17.838,16.431 15.5,6.783 8.134,2.291 5.677,0.792 2.864,0 0,0" /></g></g></g></g></svg>