<!--?xml version="1.0" encoding="utf-8"?-->
<!-- Generator: Adobe Illustrator 22.0.1, SVG Export Plug-In . SVG Version: 6.00 Build 0)  -->
<svg version="1.1" id="_x31_0" xmlns="http://www.w3.org/2000/svg" xmlns:xlink="http://www.w3.org/1999/xlink" x="0px" y="0px" viewBox="0 0 512 512" style="width: 32px; height: 32px; opacity: 1;" xml:space="preserve">
<style type="text/css">
	.st0{fill:#374149;}
</style>
<g>
	<polygon class="st0" points="12.226,478.068 0.054,490.147 0.125,490.17 0,490.295 41.222,505.482 69.43,477.276 41.222,449.072 	
		" style="fill: rgb(75, 75, 75);"></polygon>
	<path class="st0" d="M501.675,66.24l-49.422-49.422c-6.641-6.641-15.566-10.301-25.137-10.301h-0.004
		c-15.402,0-27.09,9.394-32.683,14.996l-9.196,9.195l-4.73,4.73c-3.839-1.386-7.847-2.183-11.882-2.183
		c-8.93,0-17.859,3.406-24.672,10.222L104.246,283.178c-13.503,13.508-13.582,35.301-0.32,48.957l-23.347,23.348
		c-10.184,10.183-15.731,23.195-16.801,36.488c-0.852,10.129-5.719,19.519-12.898,26.703l-9.454,9.449
		c-1.469,1.469-1.469,3.734-0.054,5.149l43.843,43.847c1.414,1.414,3.734,1.469,5.207,0l9.45-9.449
		c7.183-7.184,16.519-12.11,26.644-12.957c13.294-1.074,26.309-6.622,36.493-16.801l23.343-23.348
		c6.77,6.582,15.52,9.906,24.297,9.906c8.93,0,17.859-3.402,24.672-10.215l239.703-239.702c9.89-9.891,12.504-24.219,8.035-36.555
		l4.734-4.73l9.203-9.206c5.098-5.098,9.133-10.938,11.671-16.895C514.926,92.487,512.246,76.807,501.675,66.24z M95.004,378.056
		c6.789,1.356,10.976,9.161,9.39,17.422c-1.641,8.316-8.602,13.922-15.386,12.562c-6.902-1.359-11.09-9.168-9.45-17.485
		C81.258,382.295,88.16,376.643,95.004,378.056z M368.621,66.365c0.738,0,1.117,0.383,1.262,0.528l81.73,81.726
		c0.141,0.141,0.519,0.519,0.519,1.262c0,0.734-0.378,1.114-0.523,1.258L255.695,347.053l-84.25-84.25L367.363,66.889
		C367.503,66.748,367.886,66.365,368.621,66.365z M464.378,109.854l-55.734-55.73l9.211-9.207c3.305-3.305,6.953-5.285,9.262-5.285
		c0.722,0,1.316,0.191,1.722,0.602l49.43,49.43c1.746,1.742-0.343,6.64-4.683,10.984L464.378,109.854z M210.648,391.361
		c-0.742,0-1.121-0.378-1.262-0.519l-81.726-81.726c-0.695-0.695-0.695-1.828,0-2.524l35.981-35.984l84.254,84.25l-35.985,35.985
		C211.77,390.983,211.386,391.361,210.648,391.361z" style="fill: rgb(75, 75, 75);"></path>
	<path class="st0" d="M396.366,179.76l22.582-22.586c4.078-4.078,4.078-10.691,0-14.77l-22.582-22.586
		c-6.578-6.574-17.828-1.918-17.828,7.386v45.172C378.538,181.682,389.789,186.338,396.366,179.76z" style="fill: rgb(75, 75, 75);"></path>
</g>
</svg>
