<svg width="24" height="24" xmlns="http://www.w3.org/2000/svg" fill="none">
 <g>
  <title>Layer 1</title>
  <path d="m21.81,3.94012c-1.54,3.84 -5.4,9.05998 -8.63,11.64998l-1.97,1.58c-0.25,0.18 -0.5,0.34 -0.78,0.45c0,-0.18 -0.01,-0.38 -0.04,-0.57c-0.11,-0.84 -0.49,-1.62 -1.16,-2.29c-0.68,-0.68 -1.51,-1.08 -2.36,-1.19c-0.2,-0.01 -0.4,-0.03 -0.6,-0.01c0.11,-0.31 0.28,-0.6 0.49,-0.84l1.56,-1.97c2.58,-3.22998 7.82,-7.10998 11.65,-8.63998c0.59,-0.22 1.16,-0.06 1.52,0.31c0.38,0.37 0.56,0.94 0.32,1.52z" stroke="#292D32" stroke-width="1.5" stroke-linecap="round" stroke-linejoin="round" id="svg_1"/>
  <path d="m10.43,17.5623c0,1.1 -0.42,2.1499 -1.21,2.9499c-0.61,0.61 -1.44,1.0301 -2.43,1.1601l-2.46,0.27c-1.34,0.15 -2.49,-0.9901 -2.33,-2.3501l0.27,-2.4599c0.24,-2.19 2.07,-3.59 4.01,-3.63c0.2,-0.01 0.41,-0.0001 0.6,0.0099c0.85,0.11 1.68,0.5001 2.36,1.1901c0.67,0.67 1.05,1.4499 1.16,2.2899c0.01,0.19 0.03,0.3801 0.03,0.5701z" stroke="#292D32" stroke-width="1.5" stroke-linecap="round" stroke-linejoin="round" id="svg_2"/>
  <path d="m13.19954,15.45266c0,-2.61 -2.12,-4.73001 -4.73001,-4.73001" stroke="#292D32" stroke-width="1.5" stroke-linecap="round" stroke-linejoin="round" id="svg_3"/>
  <path d="m4.20779,20.96104c-0.12987,0 -0.16791,-0.03804 -0.25974,-0.12987c-0.09183,-0.09183 -0.3995,-0.08017 -0.51948,-0.12987c-0.16968,-0.07028 -0.25974,-0.12987 -0.25974,-0.38961c0,-0.12987 0,-0.25974 0,-0.38961c0,-0.12987 0,-0.25974 0,-0.38961l0,-0.25974l0,-0.12987" id="svg_4" fill="none"/>
  <line fill="none" stroke-linecap="round" stroke-linejoin="round" id="svg_5" y2="19.34104" x2="2.57803" y1="21.71098" x1="4.71676" stroke-width="1.5" stroke="#292D32"/>
  <line fill="none" stroke-linecap="round" stroke-linejoin="round" id="svg_6" y2="18.06936" x2="2.80925" y1="21.47977" x1="6.33526" stroke-width="1.5" stroke="#292D32"/>
  <line fill="none" stroke-linecap="round" stroke-linejoin="round" id="svg_7" y2="16.91329" x2="3.09827" y1="21.42197" x1="7.54913" stroke-width="1.5" stroke="#292D32"/>
  <line transform="rotate(-35.9605 5.69942 19.5723)" fill="none" stroke-linecap="round" stroke-linejoin="round" id="svg_8" y2="17.0289" x2="3.15607" y1="22.11561" x1="8.24277" stroke-width="1.5" stroke="#292D32"/>
  <line transform="rotate(30.4661 4.51445 18.1272)" fill="none" stroke-linecap="round" stroke-linejoin="round" id="svg_9" y2="15.46821" x2="1.88439" y1="20.78613" x1="7.14451" stroke-width="1.5" stroke="#292D32"/>
 </g>

</svg>