<?xml version="1.0" encoding="UTF-8"?>
<svg xmlns="http://www.w3.org/2000/svg" width="24" height="24" viewBox="0 0 24 24">
  <g transform="translate(0.0, 0.0) scale(1.0)">
    <path d="M 5.820598006644518 6.617940199335548 L 5.767441860465117 6.5647840531561465 L 5.740863787375416 6.538205980066445 L 5.714285714285714 6.538205980066445 L 5.714285714285714 6.511627906976744 L 5.687707641196013 6.511627906976744 L 5.661129568106312 6.485049833887043 L 5.661129568106312 6.458471760797343 L 5.634551495016612 6.431893687707642 L 5.634551495016612 6.352159468438538 L 5.607973421926911 6.325581395348838 L 5.554817275747508 6.2724252491694354 L 5.528239202657807 6.192691029900332 L 5.528239202657807 6.166112956810632 L 5.528239202657807 6.086378737541528 L 5.528239202657807 6.033222591362127 L 5.501661129568107 5.953488372093023 L 5.501661129568107 5.926910299003322 L 5.501661129568107 5.820598006644518 L 5.501661129568107 5.767441860465117 L 5.501661129568107 5.634551495016612 L 5.501661129568107 5.5813953488372094 L 5.501661129568107 5.4485049833887045 L 5.501661129568107 5.421926910299003 L 5.501661129568107 5.395348837209302 L 5.528239202657807 5.395348837209302 L 5.528239202657807 5.368770764119602 L 5.554817275747508 5.368770764119602 L 5.5813953488372094 5.368770764119602 L 5.634551495016612 5.368770764119602 L 5.661129568106312 5.368770764119602 L 5.687707641196013 5.342192691029901 L 5.714285714285714 5.3156146179401995 L 5.740863787375416 5.262458471760797 L 5.767441860465117 5.209302325581396 L 5.794019933554817 5.1827242524916945 L 5.847176079734219 5.102990033222591 L 5.8737541528239205 5.04983388704319 L 5.900332225913622 4.996677740863787 L 5.900332225913622 4.970099667774086 L 5.900332225913622 4.943521594684386 L 5.926910299003322 4.943521594684386 L 5.953488372093023 4.916943521594685 L 6.0066445182724255 4.916943521594685 L 6.0066445182724255 4.8903654485049834 L 6.033222591362127 4.8903654485049834 L 6.059800664451827 4.8903654485049834 L 6.059800664451827 4.863787375415282 L 6.086378737541528 4.863787375415282 L 6.112956810631229 4.837209302325581 L 6.1395348837209305 4.837209302325581 L 6.1395348837209305 4.78405315614618 L 6.1395348837209305 4.7574750830564785 L 6.166112956810632 4.730897009966777 L 6.166112956810632 4.704318936877076 L 6.219269102990033 4.677740863787376 L 6.245847176079734 4.677740863787376 L 6.245847176079734 4.651162790697675 L 6.245847176079734 4.6245847176079735 L 6.245847176079734 4.598006644518272 L 6.245847176079734 4.544850498338871 L 6.245847176079734 4.51827242524917 L 6.245847176079734 4.4916943521594686 L 6.245847176079734 4.51827242524917 L 6.192691029900332 4.571428571428571 L 6.1395348837209305 4.6245847176079735 L 6.059800664451827 4.704318936877076 L 6.033222591362127 4.730897009966777 L 5.953488372093023 4.810631229235881 L 5.847176079734219 4.943521594684386 L 5.820598006644518 4.970099667774086 L 5.687707641196013 5.076411960132891 L 5.634551495016612 5.156146179401993 L 5.607973421926911 5.1827242524916945 L 5.554817275747508 5.209302325581396 L 5.475083056478406 5.289036544850498 L 5.421926910299003 5.342192691029901 L 5.262458471760797 5.421926910299003 L 5.235880398671097 5.4485049833887045 L 5.1827242524916945 5.501661129568107 L 5.156146179401993 5.501661129568107 L 5.129568106312292 5.5813953488372094 L 5.102990033222591 5.607973421926911 L 5.023255813953488 5.687707641196013 L 4.970099667774086 5.767441860465117 L 4.943521594684386 5.794019933554817 L 4.916943521594685 5.820598006644518 L 4.916943521594685 5.847176079734219 L 4.863787375415282 5.847176079734219 L 4.863787375415282 5.8737541528239205 L 4.837209302325581 5.900332225913622 L 4.810631229235881 5.900332225913622 L 4.78405315614618 5.980066445182724 L 4.78405315614618 6.0066445182724255 L 4.730897009966777 6.059800664451827 L 4.704318936877076 6.112956810631229 L 4.677740863787376 6.192691029900332 L 4.6245847176079735 6.219269102990033 L 4.6245847176079735 6.245847176079734 L 4.6245847176079735 6.2724252491694354 L 4.6245847176079735 6.299003322259137" stroke="#999999" stroke-width="5.0" fill="none" stroke-linecap="round" stroke-linejoin="round"/>
    <path d="M 11.641196013289036 12.465116279069768 L 11.641196013289036 12.438538205980066 L 11.641196013289036 12.411960132890366 L 11.641196013289036 12.385382059800664 L 11.641196013289036 12.358803986710964 L 11.614617940199336 12.358803986710964 L 11.561461794019934 12.279069767441861 L 11.534883720930234 12.279069767441861 L 11.508305647840531 12.252491694352159 L 11.481727574750831 12.225913621262459 L 11.455149501661129 12.225913621262459 L 11.455149501661129 12.199335548172758 L 11.428571428571429 12.199335548172758 L 11.428571428571429 12.172757475083056 L 11.401993355481729 12.172757475083056 L 11.401993355481729 12.146179401993356 L 11.348837209302326 12.093023255813954 L 11.348837209302326 12.066445182724253 L 11.348837209302326 12.039867109634551 L 11.322259136212624 12.013289036544851 L 11.295681063122924 11.986710963455149 L 11.269102990033224 11.906976744186046 L 11.242524916943522 11.880398671096346 L 11.215946843853821 11.853820598006644 L 11.215946843853821 11.827242524916944 L 11.162790697674419 11.800664451827243 L 11.162790697674419 11.774086378737541 L 11.136212624584719 11.774086378737541 L 11.136212624584719 11.747508305647841 L 11.136212624584719 11.694352159468439 L 11.136212624584719 11.667774086378738 L 11.136212624584719 11.641196013289036 L 11.136212624584719 11.614617940199336 L 11.136212624584719 11.588039867109634 L 11.136212624584719 11.561461794019934 L 11.136212624584719 11.534883720930234 L 11.136212624584719 11.481727574750831 L 11.136212624584719 11.455149501661129 L 11.136212624584719 11.428571428571429 L 11.136212624584719 11.401993355481729 L 11.136212624584719 11.375415282392026 L 11.136212624584719 11.348837209302326 L 11.136212624584719 11.322259136212624 L 11.136212624584719 11.269102990033224 L 11.109634551495017 11.269102990033224 L 11.109634551495017 11.242524916943522 L 11.109634551495017 11.215946843853821 L 11.109634551495017 11.18936877076412 L 11.083056478405316 11.18936877076412 L 11.083056478405316 11.162790697674419 L 11.083056478405316 11.136212624584719 L 11.056478405315614 11.109634551495017 L 11.056478405315614 11.056478405315614 L 11.029900332225914 11.056478405315614 L 11.029900332225914 11.029900332225914 L 11.003322259136214 11.029900332225914 L 11.003322259136214 11.003322259136214 L 10.950166112956811 11.003322259136214 L 10.92358803986711 10.976744186046512 L 10.897009966777409 10.950166112956811 L 10.870431893687709 10.950166112956811 L 10.843853820598007 10.92358803986711 L 10.817275747508306 10.92358803986711 L 10.790697674418604 10.92358803986711" stroke="#999999" stroke-width="5.0" fill="none" stroke-linecap="round" stroke-linejoin="round"/>
    <path d="M 10.843853820598007 12.916943521594686 L 10.817275747508306 12.943521594684386 L 10.764119601328904 12.996677740863788 L 10.737541528239204 12.996677740863788 L 10.710963455149502 13.07641196013289 L 10.631229235880399 13.182724252491695 L 10.578073089700997 13.262458471760798 L 10.551495016611296 13.3156146179402 L 10.524916943521594 13.368770764119601 L 10.524916943521594 13.421926910299003 L 10.498338870431894 13.448504983388705" stroke="#999999" stroke-width="5.0" fill="none" stroke-linecap="round" stroke-linejoin="round"/>
    <path d="M 12.358803986710964 10.445182724252492 L 12.385382059800664 10.445182724252492 L 12.465116279069768 10.445182724252492 L 12.571428571428571 10.445182724252492 L 12.651162790697676 10.445182724252492 L 12.677740863787376 10.445182724252492 L 12.704318936877076 10.445182724252492 L 12.730897009966778 10.445182724252492 L 12.757475083056478 10.445182724252492 L 12.78405315614618 10.445182724252492 L 12.81063122923588 10.418604651162791 L 12.837209302325581 10.418604651162791" stroke="#999999" stroke-width="5.0" fill="none" stroke-linecap="round" stroke-linejoin="round"/>
    <path d="M 6.724252491694353 17.142857142857142 L 6.724252491694353 17.169435215946844 L 6.6976744186046515 17.169435215946844 L 6.6976744186046515 17.196013289036546 L 6.6976744186046515 17.222591362126245 L 6.6976744186046515 17.249169435215947 L 6.67109634551495 17.302325581395348 L 6.67109634551495 17.32890365448505 L 6.67109634551495 17.35548172757475 L 6.644518272425249 17.408637873754152 L 6.644518272425249 17.435215946843854 L 6.644518272425249 17.514950166112957 L 6.591362126245848 17.59468438538206 L 6.591362126245848 17.647840531561464 L 6.591362126245848 17.674418604651162 L 6.591362126245848 17.700996677740864 L 6.591362126245848 17.780730897009967 L 6.591362126245848 17.80730897009967 L 6.591362126245848 17.833887043189367 L 6.591362126245848 17.86046511627907 L 6.591362126245848 17.940199335548172 L 6.591362126245848 17.966777408637874 L 6.591362126245848 17.993355481727576 L 6.591362126245848 18.019933554817275 L 6.591362126245848 18.046511627906977 L 6.591362126245848 18.07308970099668 L 6.591362126245848 18.15282392026578 L 6.591362126245848 18.179401993355484 L 6.5647840531561465 18.232558139534884 L 6.5647840531561465 18.285714285714285 L 6.5647840531561465 18.312292358803987 L 6.5647840531561465 18.33887043189369 L 6.5647840531561465 18.36544850498339 L 6.538205980066445 18.445182724252494 L 6.538205980066445 18.498338870431894 L 6.538205980066445 18.524916943521596 L 6.538205980066445 18.551495016611295 L 6.538205980066445 18.578073089700997 L 6.538205980066445 18.6312292358804 L 6.538205980066445 18.6578073089701 L 6.538205980066445 18.6843853820598 L 6.511627906976744 18.710963455149503 L 6.511627906976744 18.737541528239202 L 6.511627906976744 18.764119601328904 L 6.511627906976744 18.790697674418606 L 6.511627906976744 18.843853820598007 L 6.511627906976744 18.87043189368771 L 6.511627906976744 18.89700996677741 L 6.511627906976744 18.92358803986711 L 6.511627906976744 18.95016611295681 L 6.511627906976744 18.976744186046513 L 6.511627906976744 19.003322259136212 L 6.511627906976744 19.056478405315616 L 6.511627906976744 19.083056478405314 L 6.511627906976744 19.109634551495017 L 6.511627906976744 19.16279069767442 L 6.511627906976744 19.18936877076412 L 6.511627906976744 19.242524916943523 L 6.511627906976744 19.21594684385382 L 6.485049833887043 19.18936877076412 L 6.485049833887043 19.16279069767442 L 6.431893687707642 19.13621262458472 L 6.40531561461794 19.056478405315616 L 6.378737541528239 19.029900332225914 L 6.352159468438538 19.003322259136212 L 6.325581395348838 18.976744186046513 L 6.299003322259137 18.95016611295681 L 6.245847176079734 18.92358803986711 L 6.192691029900332 18.89700996677741 L 6.166112956810632 18.843853820598007 L 6.059800664451827 18.817275747508305 L 6.0066445182724255 18.790697674418606 L 5.8737541528239205 18.764119601328904 L 5.794019933554817 18.764119601328904 L 5.661129568106312 18.710963455149503 L 5.5813953488372094 18.6843853820598 L 5.528239202657807 18.6578073089701 L 5.501661129568107 18.6578073089701 L 5.475083056478406 18.6578073089701 L 5.421926910299003 18.6312292358804 L 5.368770764119602 18.6312292358804 L 5.342192691029901 18.6046511627907 L 5.289036544850498 18.6046511627907 L 5.235880398671097 18.551495016611295 L 5.209302325581396 18.498338870431894 L 5.1827242524916945 18.498338870431894 L 5.156146179401993 18.445182724252494 L 5.102990033222591 18.33887043189369 L 5.04983388704319 18.285714285714285 L 5.023255813953488 18.259136212624586 L 5.023255813953488 18.205980066445182 L 5.023255813953488 18.179401993355484 L 4.996677740863787 18.15282392026578 L 4.996677740863787 18.12624584717608 L 4.996677740863787 18.099667774086377 L 4.996677740863787 18.07308970099668 L 4.996677740863787 18.046511627906977 L 4.996677740863787 18.019933554817275 L 4.996677740863787 17.966777408637874 L 4.996677740863787 17.940199335548172 L 4.996677740863787 17.913621262458474 L 4.996677740863787 17.88704318936877 L 4.996677740863787 17.86046511627907 L 4.996677740863787 17.833887043189367 L 4.996677740863787 17.80730897009967 L 4.970099667774086 17.80730897009967 L 4.943521594684386 17.754152823920265 L 4.916943521594685 17.754152823920265 L 4.8903654485049834 17.754152823920265 L 4.8903654485049834 17.727574750830566 L 4.837209302325581 17.727574750830566 L 4.810631229235881 17.700996677740864 L 4.78405315614618 17.700996677740864 L 4.7574750830564785 17.700996677740864 L 4.730897009966777 17.700996677740864 L 4.730897009966777 17.674418604651162" stroke="#999999" stroke-width="5.0" fill="none" stroke-linecap="round" stroke-linejoin="round"/>
    <path d="M 19.21594684385382 6.538205980066445 L 19.21594684385382 6.511627906976744 L 19.21594684385382 6.485049833887043 L 19.21594684385382 6.458471760797343 L 19.18936877076412 6.40531561461794 L 19.16279069767442 6.378737541528239 L 19.109634551495017 6.352159468438538 L 19.083056478405314 6.352159468438538 L 19.056478405315616 6.325581395348838 L 19.029900332225914 6.325581395348838 L 19.029900332225914 6.299003322259137 L 19.003322259136212 6.299003322259137 L 19.003322259136212 6.2724252491694354 L 18.976744186046513 6.245847176079734 L 18.976744186046513 6.219269102990033 L 18.976744186046513 6.166112956810632 L 18.95016611295681 6.1395348837209305 L 18.89700996677741 6.1395348837209305 L 18.89700996677741 6.112956810631229 L 18.87043189368771 6.112956810631229 L 18.843853820598007 6.112956810631229 L 18.843853820598007 6.086378737541528 L 18.817275747508305 6.086378737541528 L 18.790697674418606 6.059800664451827 L 18.764119601328904 6.059800664451827 L 18.764119601328904 6.033222591362127 L 18.737541528239202 6.033222591362127 L 18.6843853820598 6.0066445182724255 L 18.6578073089701 6.0066445182724255 L 18.6312292358804 5.953488372093023 L 18.578073089700997 5.953488372093023 L 18.551495016611295 5.953488372093023 L 18.498338870431894 5.926910299003322 L 18.471760797342192 5.926910299003322 L 18.445182724252494 5.900332225913622 L 18.41860465116279 5.900332225913622 L 18.41860465116279 5.8737541528239205 L 18.39202657807309 5.8737541528239205 L 18.36544850498339 5.847176079734219 L 18.33887043189369 5.820598006644518 L 18.33887043189369 5.794019933554817 L 18.33887043189369 5.740863787375416 L 18.33887043189369 5.714285714285714 L 18.33887043189369 5.687707641196013 L 18.33887043189369 5.661129568106312 L 18.312292358803987 5.634551495016612 L 18.312292358803987 5.607973421926911 L 18.312292358803987 5.5813953488372094 L 18.259136212624586 5.528239202657807 L 18.259136212624586 5.501661129568107 L 18.259136212624586 5.475083056478406 L 18.232558139534884 5.4485049833887045 L 18.232558139534884 5.421926910299003 L 18.232558139534884 5.395348837209302 L 18.232558139534884 5.368770764119602 L 18.232558139534884 5.342192691029901 L 18.232558139534884 5.289036544850498 L 18.232558139534884 5.262458471760797 L 18.232558139534884 5.235880398671097 L 18.205980066445182 5.209302325581396 L 18.205980066445182 5.1827242524916945 L 18.205980066445182 5.156146179401993 L 18.205980066445182 5.129568106312292 L 18.205980066445182 5.076411960132891 L 18.205980066445182 5.04983388704319 L 18.205980066445182 5.023255813953488 L 18.179401993355484 4.996677740863787 L 18.179401993355484 4.970099667774086 L 18.179401993355484 4.943521594684386 L 18.179401993355484 4.916943521594685 L 18.179401993355484 4.863787375415282 L 18.15282392026578 4.837209302325581 L 18.15282392026578 4.810631229235881 L 18.15282392026578 4.78405315614618 L 18.15282392026578 4.7574750830564785 L 18.12624584717608 4.730897009966777 L 18.12624584717608 4.704318936877076 L 18.12624584717608 4.651162790697675 L 18.12624584717608 4.6245847176079735 L 18.099667774086377 4.6245847176079735 L 18.099667774086377 4.598006644518272 L 18.046511627906977 4.571428571428571 L 18.019933554817275 4.544850498338871 L 18.019933554817275 4.51827242524917 L 17.993355481727576 4.51827242524917 L 17.966777408637874 4.51827242524917 L 17.966777408637874 4.544850498338871 L 17.966777408637874 4.571428571428571 L 17.966777408637874 4.6245847176079735 L 17.966777408637874 4.677740863787376 L 17.966777408637874 4.704318936877076 L 17.966777408637874 4.730897009966777 L 17.966777408637874 4.78405315614618 L 17.966777408637874 4.863787375415282 L 17.966777408637874 4.943521594684386 L 17.966777408637874 5.023255813953488 L 17.966777408637874 5.04983388704319 L 17.993355481727576 5.04983388704319 L 17.993355481727576 5.102990033222591 L 17.993355481727576 5.156146179401993 L 17.993355481727576 5.1827242524916945 L 17.993355481727576 5.235880398671097 L 17.993355481727576 5.262458471760797 L 17.993355481727576 5.289036544850498 L 17.993355481727576 5.342192691029901 L 17.993355481727576 5.4485049833887045 L 17.993355481727576 5.501661129568107 L 17.993355481727576 5.5813953488372094 L 17.993355481727576 5.634551495016612 L 17.993355481727576 5.661129568106312 L 17.993355481727576 5.714285714285714 L 17.993355481727576 5.794019933554817 L 17.993355481727576 5.847176079734219 L 17.993355481727576 5.8737541528239205 L 17.993355481727576 5.926910299003322 L 17.993355481727576 5.953488372093023 L 17.966777408637874 6.0066445182724255 L 17.966777408637874 6.033222591362127 L 17.966777408637874 6.086378737541528 L 17.966777408637874 6.166112956810632 L 17.966777408637874 6.192691029900332" stroke="#999999" stroke-width="5.0" fill="none" stroke-linecap="round" stroke-linejoin="round"/>
    <path d="M 11.747508305647841 10.365448504983389 L 11.747508305647841 10.39202657807309 L 11.747508305647841 10.445182724252492 L 11.747508305647841 10.471760797342194 L 11.747508305647841 10.524916943521594 L 11.747508305647841 10.578073089700997 L 11.800664451827243 10.710963455149502 L 11.827242524916944 10.764119601328904 L 11.853820598006644 10.790697674418604 L 11.880398671096346 10.870431893687709 L 11.906976744186046 10.897009966777409 L 12.013289036544851 11.003322259136214 L 12.039867109634551 11.029900332225914 L 12.146179401993356 11.162790697674419 L 12.199335548172758 11.295681063122924 L 12.225913621262459 11.322259136212624" stroke="#999999" stroke-width="5.0" fill="none" stroke-linecap="round" stroke-linejoin="round"/>
    <path d="M 11.747508305647841 11.295681063122924 L 11.747508305647841 11.322259136212624 L 11.853820598006644 11.428571428571429 L 11.906976744186046 11.534883720930234 L 11.933554817275748 11.641196013289036 L 11.960132890365449 11.747508305647841 L 12.039867109634551 11.880398671096346 L 12.066445182724253 11.933554817275748 L 12.119601328903654 11.986710963455149 L 12.172757475083056 12.093023255813954 L 12.252491694352159 12.172757475083056 L 12.252491694352159 12.199335548172758 L 12.279069767441861 12.279069767441861 L 12.305647840531561 12.305647840531561 L 12.332225913621263 12.332225913621263 L 12.358803986710964 12.358803986710964 L 12.358803986710964 12.385382059800664 L 12.385382059800664 12.465116279069768 L 12.465116279069768 12.51827242524917 L 12.491694352159469 12.598006644518273 L 12.544850498338871 12.677740863787376 L 12.544850498338871 12.704318936877076 L 12.571428571428571 12.757475083056478 L 12.571428571428571 12.78405315614618 L 12.598006644518273 12.81063122923588 L 12.651162790697676 12.81063122923588 L 12.730897009966778 12.863787375415283 L 12.81063122923588 12.863787375415283 L 12.837209302325581 12.863787375415283 L 12.890365448504983 12.863787375415283 L 12.943521594684386 12.916943521594686 L 12.996677740863788 12.970099667774086 L 13.023255813953488 12.996677740863788 L 13.023255813953488 13.023255813953488 L 13.102990033222591 13.04983388704319 L 13.102990033222591 13.07641196013289" stroke="#999999" stroke-width="5.0" fill="none" stroke-linecap="round" stroke-linejoin="round"/>
    <path d="M 20.27906976744186 15.681063122923588 L 20.27906976744186 15.70764119601329 L 20.27906976744186 15.73421926910299 L 20.27906976744186 15.760797342192692 L 20.27906976744186 15.787375415282392 L 20.27906976744186 15.813953488372093 L 20.27906976744186 15.840531561461795 L 20.27906976744186 15.867109634551495 L 20.27906976744186 15.920265780730897" stroke="#999999" stroke-width="4.0" fill="none" stroke-linecap="round" stroke-linejoin="round"/>
    <path d="M 5.794019933554817 12.385382059800664 L 5.847176079734219 12.411960132890366 L 5.847176079734219 12.438538205980066 L 5.847176079734219 12.465116279069768 L 5.847176079734219 12.491694352159469 L 5.847176079734219 12.544850498338871 L 5.8737541528239205 12.598006644518273 L 5.8737541528239205 12.624584717607974 L 5.900332225913622 12.624584717607974 L 5.900332225913622 12.651162790697676 L 5.900332225913622 12.677740863787376 L 5.900332225913622 12.704318936877076 L 5.900332225913622 12.730897009966778 L 5.900332225913622 12.757475083056478 L 5.900332225913622 12.78405315614618 L 5.900332225913622 12.837209302325581 L 5.8737541528239205 12.863787375415283 L 5.8737541528239205 12.890365448504983 L 5.8737541528239205 12.916943521594686 L 5.8737541528239205 12.943521594684386 L 5.8737541528239205 12.970099667774086 L 5.8737541528239205 12.996677740863788 L 5.8737541528239205 13.04983388704319 L 5.8737541528239205 13.07641196013289 L 5.8737541528239205 13.102990033222591 L 5.8737541528239205 13.129568106312293 L 5.8737541528239205 13.156146179401993 L 5.900332225913622 13.182724252491695 L 5.926910299003322 13.209302325581396 L 5.953488372093023 13.209302325581396 L 5.980066445182724 13.209302325581396 L 6.0066445182724255 13.209302325581396 L 6.059800664451827 13.209302325581396 L 6.086378737541528 13.209302325581396 L 6.112956810631229 13.209302325581396 L 6.1395348837209305 13.209302325581396 L 6.166112956810632 13.209302325581396 L 6.192691029900332 13.209302325581396 L 6.219269102990033 13.209302325581396 L 6.245847176079734 13.182724252491695 L 6.299003322259137 13.182724252491695 L 6.325581395348838 13.182724252491695 L 6.325581395348838 13.209302325581396 L 6.325581395348838 13.262458471760798 L 6.325581395348838 13.289036544850498 L 6.325581395348838 13.3156146179402 L 6.352159468438538 13.3156146179402 L 6.378737541528239 13.3156146179402 L 6.40531561461794 13.3156146179402 L 6.431893687707642 13.3156146179402 L 6.458471760797343 13.3156146179402 L 6.511627906976744 13.3156146179402 L 6.538205980066445 13.3156146179402 L 6.5647840531561465 13.3156146179402 L 6.591362126245848 13.3156146179402 L 6.617940199335548 13.3156146179402 L 6.617940199335548 13.3421926910299" stroke="#ffffff" stroke-width="4.0" fill="none" stroke-linecap="round" stroke-linejoin="round"/>
  </g>
  <g transform="translate(0.0, 0.0) scale(1.0)">
    <path d="M 10.0 22.75 L 9.0 22.75 C 3.57 22.75 1.25 20.43 1.25 15.0 L 1.25 9.0 C 1.25 3.57 3.57 1.25 9.0 1.25 L 15.0 1.25 C 20.43 1.25 22.75 3.57 22.75 9.0 L 22.75 11.0 C 22.75 11.41 22.41 11.75 22.0 11.75 C 21.59 11.75 21.25 11.41 21.25 11.0 L 21.25 9.0 C 21.25 4.39 19.61 2.75 15.0 2.75 L 9.0 2.75 C 4.39 2.75 2.75 4.39 2.75 9.0 L 2.75 15.0 C 2.75 19.61 4.39 21.25 9.0 21.25 L 10.0 21.25 C 10.41 21.25 10.75 21.59 10.75 22.0 C 10.75 22.41 10.41 22.75 10.0 22.75" stroke="#000000" stroke-width="1.0" fill="#292d32" stroke-linecap="round" stroke-linejoin="round"/>
    <path d="M 22.0012 9.25 L 2.03125 9.25 C 1.62125 9.25 1.28125 8.91 1.28125 8.5 C 1.28125 8.09 1.62125 7.75 2.03125 7.75 L 22.0012 7.75 C 22.4112 7.75 22.7512 8.09 22.7512 8.5 C 22.7512 8.91 22.4112 9.25 22.0012 9.25" stroke="#000000" stroke-width="1.0" fill="#292d32" stroke-linecap="round" stroke-linejoin="round"/>
    <path d="M 12.0012 16.25 L 2.03125 16.25 C 1.62125 16.25 1.28125 15.91 1.28125 15.5 C 1.28125 15.09 1.62125 14.75 2.03125 14.75 L 12.0012 14.75 C 12.4112 14.75 12.7512 15.09 12.7512 15.5 C 12.7512 15.91 12.4112 16.25 12.0012 16.25" stroke="#000000" stroke-width="1.0" fill="#292d32" stroke-linecap="round" stroke-linejoin="round"/>
    <path d="M 8.50977 22.74 C 8.09977 22.74 7.75977 22.4 7.75977 21.99 L 7.75977 2.02002 C 7.75977 1.61002 8.09977 1.27002 8.50977 1.27002 C 8.91977 1.27002 9.25977 1.61002 9.25977 2.02002 L 9.25977 21.99 C 9.25977 22.4 8.92977 22.74 8.50977 22.74" stroke="#000000" stroke-width="1.0" fill="#292d32" stroke-linecap="round" stroke-linejoin="round"/>
    <path d="M 15.5098 12.74 C 15.0998 12.74 14.7598 12.4 14.7598 11.99 L 14.7598 2.02002 C 14.7598 1.61002 15.0998 1.27002 15.5098 1.27002 C 15.9198 1.27002 16.2598 1.61002 16.2598 2.02002 L 16.2598 11.99 C 16.2598 12.4 15.9298 12.74 15.5098 12.74" stroke="#000000" stroke-width="1.0" fill="#292d32" stroke-linecap="round" stroke-linejoin="round"/>
    <path d="M 14.7611 22.7502 C 14.3411 22.7502 13.9611 22.6001 13.6811 22.3201 C 13.3411 21.9901 13.1911 21.5002 13.2711 20.9902 L 13.5011 19.4002 C 13.5511 19.0202 13.7811 18.5602 14.0611 18.2802 L 18.2111 14.1302 C 18.7511 13.5902 19.2811 13.3102 19.8411 13.2502 C 20.5311 13.1802 21.2211 13.4802 21.8711 14.1302 C 22.5211 14.7802 22.8211 15.4602 22.7511 16.1602 C 22.7011 16.7202 22.4111 17.2502 21.8711 17.7902 L 17.721 21.9401 C 17.451 22.2101 16.991 22.4402 16.601 22.5002 L 15.0211 22.7302 C 14.9311 22.7402 14.8411 22.7502 14.7611 22.7502 M 20.0211 14.7502 C 20.0111 14.7502 19.991 14.7502 19.981 14.7502 C 19.781 14.7702 19.5411 14.9201 19.2611 15.2001 L 15.1111 19.3502 C 15.0611 19.4002 14.991 19.5502 14.981 19.6202 L 14.7511 21.2101 L 16.3811 21.0302 C 16.4511 21.0202 16.6011 20.9402 16.6511 20.9002 L 20.8011 16.7502 C 21.0811 16.4702 21.2311 16.2302 21.2511 16.0302 C 21.2711 15.8002 21.1211 15.5301 20.8011 15.2101 C 20.5011 14.9001 20.2411 14.7502 20.0211 14.7502" stroke="#000000" stroke-width="1.0" fill="#292d32" stroke-linecap="round" stroke-linejoin="round"/>
    <path d="M 20.74 18.6101 C 20.67 18.6101 20.61 18.6001 20.54 18.5801 C 19.04 18.1601 17.84 16.9601 17.42 15.4601 C 17.31 15.0601 17.5401 14.6502 17.9401 14.5402 C 18.3501 14.4302 18.75 14.6602 18.86 15.0602 C 19.14 16.0602 19.9401 16.8601 20.9401 17.1401 C 21.3401 17.2501 21.5701 17.6702 21.4601 18.0602 C 21.3701 18.4002 21.06 18.6101 20.74 18.6101" stroke="#000000" stroke-width="1.0" fill="#292d32" stroke-linecap="round" stroke-linejoin="round"/>
  </g>
</svg>