<svg width="200" height="200" viewBox="0 0 24 24" fill="none" xmlns="http://www.w3.org/2000/svg">
  <path d="M9 22H15C20 22 22 20 22 15V9C22 4 20 2 15 2H9C4 2 2 4 2 9V15C2 20 4 22 9 22Z" stroke="#292D32" stroke-width="1.5" stroke-linecap="round" stroke-linejoin="round"/>
  
  <path d="M2 2H8.5V8.5H2V2Z" fill="#292D32"/> <path d="M15.5 2H22V8.5H15.5V2Z" fill="#292D32"/> <path d="M8.5 8.5H15.5V15.5H8.5V8.5Z" fill="#292D32"/> <path d="M2 15.5H8.5V22H2V15.5Z" fill="#292D32"/> <path d="M15.5 15.5H22V22H15.5V15.5Z" fill="#292D32"/> <path d="M2.03 8.5H22" stroke="#292D32" stroke-width="1.5" stroke-linecap="round" stroke-linejoin="round"/>
  <path d="M2.03 15.5H22" stroke="#292D32" stroke-width="1.5" stroke-linecap="round" stroke-linejoin="round"/>
  <path d="M8.51 21.99V2.01001" stroke="#292D32" stroke-width="1.5" stroke-linecap="round" stroke-linejoin="round"/>
  <path d="M15.51 21.99V2.01001" stroke="#292D32" stroke-width="1.5" stroke-linecap="round" stroke-linejoin="round"/>
</svg>