<svg width="24" height="24" xmlns="http://www.w3.org/2000/svg" fill="none">

 <g>
  <title>Layer 1</title>
  <path id="svg_1" stroke-linejoin="round" stroke-linecap="round" stroke-width="1.5" stroke="#292D32" d="m19.57769,11.41113l2.52,-2.51999c0.83,-0.83 0.83,-2.17 0,-3c-0.83,-0.83 -2.17,-0.83 -3,0l-13.00005,12.99999c-0.83,0.83 -0.83,2.17 0,3c0.83,0.83 2.17,0.83 3,0l8.00005,-8"/>
  <path id="svg_2" stroke-linejoin="round" stroke-linecap="round" stroke-width="1.5" stroke="#292D32" d="m19.64122,11.4052l-3,-3"/>
  <path id="svg_3" stroke-linejoin="round" stroke-linecap="round" stroke="#292D32" d="m15.23976,4.88973l0.44,1.5l-1.5,-0.44l-1.5,0.44l0.44,-1.5l-0.44,-1.5l1.5,0.44"/>
  <path id="svg_4" stroke-linejoin="round" stroke-linecap="round" stroke="#292D32" d="m7.2711,10.75867l1.5,-0.44l-0.44,1.5l0.44,1.5l-1.5,-0.44l-1.5,0.44l0.44,-1.5l-0.44,-1.5l1.5,0.44z"/>
  <path id="svg_5" stroke-linejoin="round" stroke-linecap="round" stroke="#292D32" d="m17.95662,18.36707l-0.44,-1.5l1.5,0.44l1.5,-0.44l-0.44,1.5l0.44,1.5l-1.5,-0.44"/>
  <path fill="#000000" d="m10.36995,2.94265l-9.60902,-2.82456c-0.04825,-0.01463 -0.09711,-0.02086 -0.14596,-0.02086c-0.13471,0 -0.26648,0.0531 -0.36498,0.15146c-0.13398,0.13328 -0.18426,0.32945 -0.1306,0.51016l2.82456,9.61131c0.05799,0.19962 0.2316,0.34542 0.43893,0.36783c0.0196,0.00203 0.03856,0.00277 0.05721,0.00277c0.18647,0 0.35948,-0.10118 0.45174,-0.26666l2.3401,-4.24274l4.24197,-2.34088c0.18283,-0.10048 0.28687,-0.3008 0.26397,-0.50748c-0.02224,-0.20715 -0.16764,-0.38103 -0.36792,-0.44036l0,0.00001z" id="svg_6" stroke="null"/>
 </g>
</svg>