<svg width="24" height="24" xmlns="http://www.w3.org/2000/svg" fill="none">

 <g>
  <title>Layer 1</title>
  <path id="svg_1" fill="#292D32" d="m21.39228,9.27325l-3.52,-3.52c-3.16,-3.15 -4.82,-1.99 -6.81995,0l-5.66,5.66c-1.15,1.15005 -1.78,1.89005 -2.01,2.71005c0,0.01 -0.01,0.01 -0.01,0.01c0,0.01 0,0.01 0,0.01c0,0.01 0,0.01 0,0.01l0,0.03c-0.41,1.46 0.67,2.7 2.02,4.05l3.53,3.51c1.26,1.27 2.28,2.06 3.40995,2.06c1.13,0 2.1,-0.76 3.4,-2.06l5.66,-5.65c0.49,-0.5 0.85,-0.91 1.13,-1.3c0,-0.01 0,-0.01 0,-0.01c0,0 0,0 0.01,0c1.28,-1.79 0.94,-3.44005 -1.14,-5.51005zm-1.03,3.90005l-0.01,0c-0.3,-0.07 -0.61,-0.13 -0.92,-0.19c-0.02,0 -0.04,-0.01 -0.07,-0.01c-0.7,-0.13 -1.41,-0.24 -2.13,-0.33l-0.04,0c-0.72,-0.09 -1.45,-0.16 -2.18,-0.2l-0.08,0c-0.64,-0.04 -1.29,-0.06 -1.93,-0.06c-0.77995,0 -1.55995,0.04 -2.32995,0.09c-0.13,0.01 -0.25,0.02 -0.37,0.03c-0.58,0.04 -1.16,0.1 -1.73,0.17c-0.16,0.02 -0.31,0.04 -0.46,0.06c-0.58,0.09 -1.15,0.18 -1.72,0.29c-0.13,0.03 -0.25,0.05 -0.38,0.07c-0.05,0.01 -0.11,0.02 -0.16,0.03c0.18,-0.2 0.39,-0.41 0.62,-0.64l5.65,-5.65005c1.81995,-1.8 2.43995,-2.23 4.67995,0l3.51,3.52c0.54,0.53 0.9,0.98 1.12,1.37c0,0 0,0.01 0.01,0.01c0.42,0.73005 -0.26,1.60005 -1.08,1.44005z"/>
  <path id="svg_2" fill="#292D32" d="m22.81176,18.85198c-0.38,-0.47 -0.71,-0.87 -1.45,-0.87c-0.74,0 -1.07,0.4 -1.44,0.87c-0.8,0.99 -1.16,2.07 -1.03,3.11c0.15,1.19 1.17,2.02 2.47,2.02c1.3,0 2.32,-0.83 2.47,-2.03c0.13,-1.04 -0.22,-2.11 -1.02,-3.1z"/>
  <path fill="#000000" d="m10.36995,2.94265l-9.60902,-2.82456c-0.04825,-0.01463 -0.09711,-0.02086 -0.14596,-0.02086c-0.13471,0 -0.26648,0.0531 -0.36498,0.15146c-0.13398,0.13328 -0.18426,0.32945 -0.1306,0.51016l2.82456,9.61131c0.05799,0.19962 0.2316,0.34542 0.43893,0.36783c0.0196,0.00203 0.03856,0.00277 0.05721,0.00277c0.18647,0 0.35948,-0.10118 0.45174,-0.26666l2.3401,-4.24274l4.24197,-2.34088c0.18283,-0.10048 0.28687,-0.3008 0.26397,-0.50748c-0.02224,-0.20715 -0.16764,-0.38103 -0.36792,-0.44036l0,0.00001z" id="svg_3" stroke="null"/>
 </g>
</svg>