<svg width="24" height="24" xmlns="http://www.w3.org/2000/svg" fill="none">

 <g>
  <title>Layer 1</title>
  <g stroke="null" id="svg_3">
   <path stroke="null" id="svg_1" fill="#292D32" d="m8.96789,19.0586l7.93408,0c0.40662,0 0.74382,-0.34 0.74382,-0.75c0,-0.41 -0.3372,-0.75 -0.74382,-0.75l-7.93408,0c-2.32072,0 -4.21498,-1.91 -4.21498,-4.25c0,-2.34 1.89426,-4.25001 4.21498,-4.25001l10.90936,0c0.40662,0 0.74382,-0.34 0.74382,-0.75c0,-0.41 -0.3372,-0.75 -0.74382,-0.75l-10.90936,0c-3.14388,0 -5.70263,2.58001 -5.70263,5.75001c0,3.17 2.55874,5.75 5.70263,5.75z"/>
   <path stroke="null" id="svg_2" fill="#292D32" d="m17.59652,11.5589c0.18843,0 0.37687,-0.07 0.52563,-0.22l2.53891,-2.55999c0.28761,-0.29 0.28761,-0.77 0,-1.06l-2.53891,-2.56c-0.28761,-0.29 -0.76366,-0.29 -1.05127,0c-0.28761,0.29 -0.28761,0.77 0,1.06l2.01328,2.03l-2.01328,2.02999c-0.28761,0.29 -0.28761,0.77 0,1.06c0.13885,0.15 0.3372,0.22 0.52563,0.22z"/>
  </g>
 </g>
</svg>