<svg width="24" height="24" xmlns="http://www.w3.org/2000/svg" fill="none">

 <g>
  <title>Layer 1</title>
  <path id="svg_1" fill="#292D32" d="m11.7904,13.692c-0.54,0 -1.09,-0.1 -1.52,-0.29l-5.90001,-2.62c-1.5,-0.67 -1.72,-1.57 -1.72,-2.06c0,-0.49 0.22,-1.39 1.72,-2.06l5.90001,-2.62c0.87,-0.39 2.18,-0.39 3.05,0l5.91,2.62c1.49,0.66 1.72,1.57 1.72,2.06c0,0.49 -0.22,1.39 -1.72,2.06l-5.91,2.62c-0.44,0.2 -0.98,0.29 -1.53,0.29zm0,-8.44c-0.34,0 -0.67,0.05 -0.91,0.16l-5.90001,2.62c-0.61,0.28 -0.83,0.56 -0.83,0.69c0,0.13 0.22,0.42 0.82,0.69l5.90001,2.62c0.48,0.21 1.35,0.21 1.83,0l5.91,-2.62c0.61,-0.27 0.83,-0.56 0.83,-0.69c0,-0.13 -0.22,-0.42 -0.83,-0.69l-5.9,-2.62c-0.24,-0.1 -0.58,-0.16 -0.92,-0.16z"/>
  <path id="svg_2" fill="#292D32" d="m12,18.902c-0.38,0 -0.76,-0.08 -1.12,-0.24l-6.79,-3.02c-1.03,-0.45 -1.84,-1.7 -1.84,-2.83c0,-0.41 0.34,-0.75 0.75,-0.75c0.41,0 0.75,0.34 0.75,0.75c0,0.55 0.45,1.24 0.95,1.47l6.79,3.02c0.32,0.14 0.69,0.14 1.02,0l6.79,-3.02c0.5,-0.22 0.95,-0.92 0.95,-1.47c0,-0.41 0.34,-0.75 0.75,-0.75c0.41,0 0.75,0.34 0.75,0.75c0,1.13 -0.81,2.38 -1.84,2.84l-6.79,3.02c-0.36,0.15 -0.74,0.23 -1.12,0.23z"/>
  <path id="svg_3" fill="#292D32" d="m12,23.9003c-0.38,0 -0.76,-0.08 -1.12,-0.24l-6.79,-3.02c-1.12,-0.5 -1.84,-1.61 -1.84,-2.84c0,-0.41 0.34,-0.75 0.75,-0.75c0.41,0 0.75,0.35 0.75,0.76c0,0.63 0.37,1.21 0.95,1.47l6.79,3.02c0.32,0.14 0.69,0.14 1.02,0l6.79,-3.02c0.58,-0.26 0.95,-0.83 0.95,-1.47c0,-0.41 0.34,-0.75 0.75,-0.75c0.41,0 0.75,0.34 0.75,0.75c0,1.23 -0.72,2.34 -1.84,2.84l-6.79,3.02c-0.36,0.15 -0.74,0.23 -1.12,0.23z"/>
  <path transform="rotate(90 11.6247 11.1278)" stroke="null" id="svg_4" d="m1.16321,11.06523c0.01944,-1.20557 -0.01244,-2.41275 0.1599,-3.61619c4.23481,0.39588 8.41967,1.04364 12.58312,1.62617c0.22351,-0.59114 0.11831,-1.08149 0.31251,-1.62804c2.67477,1.15009 5.32543,2.31656 7.86745,3.53857c-2.43882,1.38618 -5.23624,2.58999 -7.98256,3.8227c-0.08893,-0.57405 -0.17788,-1.14811 -0.26681,-1.72216c-4.04766,0.55537 -8.3282,1.12957 -12.40204,1.63729c-0.27704,-1.17153 -0.2689,-2.44737 -0.27158,-3.65832z" stroke-width="1.5" fill="#292D32"/>
 </g>
</svg>