<svg width="24.000000000000004" height="24.000000000000004" xmlns="http://www.w3.org/2000/svg" fill="none">
 <g>
  <title>Layer 1</title>
  <g id="svg_14" stroke="null">
   <path d="m12.33857,19.80273l-0.45194,-0.45186l0,0l0.45194,0.45186zm0.6832,-10.60532l0.45186,-0.45189l0,0l-0.45186,0.45189zm-0.93022,-0.9302l-0.4519,0.45189l0,0l0.4519,-0.45189zm1.86035,-1.8604l0.45194,-0.45189l0,0l-0.45194,0.45189zm0.93022,0.93019l-0.45186,0.45189c0.1198,0.11985 0.28238,0.18718 0.45186,0.18718c0.16948,0 0.33206,-0.06732 0.45186,-0.18718l-0.45186,-0.45189zm1.24029,-1.24027l-0.45186,-0.45189l0,0l0.45186,0.45189zm3.72079,6.20135l-0.45186,-0.45189c-0.24958,0.24952 -0.24958,0.65418 0,0.90375l0.45186,-0.45186zm0.93022,0.93022l-0.45194,0.45186l0,0l0.45194,-0.45186zm-13.39595,1.61333l-0.45189,-0.45186l0,0l0.45189,0.45186zm-1.9229,5.02363l0.45189,0.45186l0,0l-0.45189,-0.45186zm0.53571,-0.53579l-0.45189,-0.45186l0,0l0.45189,0.45186zm1.32468,2.39614l0.45189,0.45186l0,0l-0.45189,-0.45186zm0.53571,-0.5357l-0.45189,-0.45186l0,0l0.45189,0.45186zm-1.26588,-3.55523l-0.63515,0.07055l0,0l0.63515,-0.07055zm-0.045,-0.405l0.63515,-0.07064l0,0l-0.63515,0.07064zm3.00573,3.36573l-0.07058,0.63514l0,0l0.07058,-0.63514zm0.405,0.04499l0.07057,-0.63514l0,0l-0.07057,0.63514zm-1.8863,0.34416l0.41359,0.48722l0,0l-0.41359,-0.48722zm1.18628,-0.41607l0.01863,-0.63881l-0.00001,0l-0.01862,0.63881zm-2.5792,-4.91132l-0.56467,-0.29925l-0.00001,0l0.56468,0.29925zm-0.17347,0.49455l-0.62787,-0.11912l0,0l0.62787,0.11912zm-0.30225,2.96423l-0.48718,-0.4136l0,0l0.48718,0.4136zm0.41612,-1.18627l0.63879,-0.01858l0,0l-0.63879,0.01858zm4.91128,2.57917l0.29924,0.56468l0,0l-0.29924,-0.56468zm-0.49452,0.17348l0.11907,0.6279l0,0l-0.11907,-0.6279zm4.69182,-4.26135l-0.45186,-0.45186l0,0l0.45186,0.45186zm-2.24669,-7.67546l-0.93022,-0.9302l-0.90376,0.90377l0.93018,0.9302l0.9038,-0.90377zm5.89122,5.89128l-0.93013,-0.93022l-0.9038,0.9038l0.93022,0.93022l0.90372,-0.9038l-0.00001,0zm-5.8648,-7.77811l0.93022,0.93019l0.90372,-0.90377l-0.93013,-0.93019l-0.9038,0.90377l-0.00001,0zm1.83394,0.93019l1.24029,-1.24027l-0.90372,-0.90377l-1.24029,1.24027l0.90372,0.90377zm5.29757,2.81704l-1.24021,1.24027l0.90372,0.90375l1.24029,-1.24025l-0.9038,-0.90377zm-8.06173,-0.95663l4.96108,4.96109l0.9038,-0.9038l-4.96108,-4.96106l-0.9038,0.90377zm-4.74046,5.64429l5.64427,-5.64429l-0.9038,-0.90377l-5.64423,5.64426l0.90377,0.9038l-0.00001,0zm-1.9229,5.02354l0.53571,-0.5357l-0.90377,-0.9038l-0.53571,0.5357l0.90377,0.9038zm1.8604,1.86035l0.53571,-0.5357l-0.90377,-0.90372l-0.53571,0.5357l0.90377,0.90372zm-0.54689,-4.61335l-0.04501,-0.40508l-1.2703,0.14119l0.045,0.405l1.27031,-0.1411l0,-0.00001zm2.255,3.66643l0.40501,0.04499l0.14114,-1.27029l-0.405,-0.04499l-0.14115,1.27029zm-1.17239,0.41122c0.11351,-0.1135 0.14526,-0.14451 0.17527,-0.16999l-0.82719,-0.97436c-0.07906,0.06714 -0.15332,0.14204 -0.25185,0.24063l0.90377,0.90372zm1.31355,-1.6815c-0.13851,-0.01542 -0.24332,-0.02761 -0.34697,-0.03059l-0.03725,1.27761c0.03934,0.00111 0.08356,0.00554 0.24307,0.02326l0.14116,-1.27029l-0.00001,0.00001zm-1.13828,1.51151c0.21004,-0.17834 0.47866,-0.27258 0.75406,-0.26449l0.03724,-1.27761c-0.59111,-0.01721 -1.16767,0.18499 -1.61849,0.56774l0.82719,0.97436zm-3.47515,0.7057c0.7633,0.76338 2.00086,0.76338 2.76417,0l-0.90377,-0.90372c-0.26416,0.26415 -0.69246,0.26415 -0.95663,0l-0.90377,0.90372zm1.9229,-7.7877c-0.36056,0.36052 -0.64014,0.6308 -0.81893,0.96814l1.12933,0.5985c0.06786,-0.12798 0.17682,-0.24634 0.59337,-0.66284l-0.90377,-0.9038zm0.24937,2.76927c-0.06505,-0.58547 -0.07623,-0.74591 -0.04922,-0.8883l-1.25575,-0.23816c-0.07114,0.37517 -0.02164,0.76083 0.03467,1.26764l1.2703,-0.14119l0,0.00001zm-1.06831,-1.80113c-0.11223,0.21183 -0.19201,0.43925 -0.23667,0.67468l1.25575,0.23816c0.0208,-0.10966 0.05798,-0.21566 0.11026,-0.31433l-1.12934,-0.5985l0,-0.00001zm14.5249,-8.8093c1.1204,1.1204 1.1204,2.93691 0,4.05731l0.9038,0.90377c1.61955,-1.61954 1.61955,-4.24531 0,-5.86485l-0.9038,0.90377zm-4.05728,0c1.1204,-1.12039 2.93696,-1.12039 4.05728,0l0.9038,-0.90377c-1.61955,-1.61953 -4.24533,-1.61953 -5.8648,0l0.90372,0.90377zm3.74721,8.08818c-0.26415,0.26415 -0.6924,0.26415 -0.95663,0l-0.90372,0.9038c0.7633,0.7633 2.00086,0.7633 2.76416,0l-0.9038,-0.9038l-0.00001,0zm-13.8793,5.14462c0.09854,-0.09859 0.1735,-0.1728 0.2406,-0.25188l-0.97435,-0.8272c-0.02548,0.02999 -0.05654,0.06178 -0.17002,0.17527l0.90377,0.9038l0,0.00001zm-0.49252,-2.07619c0.01772,0.15951 0.02214,0.20373 0.02329,0.2431l1.27758,-0.03724c-0.00302,-0.1037 -0.01517,-0.2085 -0.03056,-0.34697l-1.27031,0.1411l0,0.00001zm0.73312,1.82431c0.38273,-0.45084 0.58497,-1.02736 0.56774,-1.61845l-1.27758,0.03724c0.00803,0.27539 -0.08621,0.54397 -0.26451,0.75401l0.97435,0.8272zm5.86063,-12.67085c0.26415,-0.26417 0.69249,-0.26417 0.95663,0l0.9038,-0.90377c-0.7633,-0.7633 -2.00086,-0.7633 -2.7642,0l0.90376,0.90377l0.00001,0zm-6.63695,14.41507c-0.26417,-0.26415 -0.26417,-0.69249 0,-0.95663l-0.90377,-0.9038c-0.7633,0.7633 -0.7633,2.00086 0,2.76416l0.90377,-0.90372l0,-0.00001zm6.63695,-13.45844c-0.26415,-0.26416 -0.26415,-0.69246 0,-0.95663l-0.90376,-0.90377c-0.7633,0.7633 -0.7633,2.00086 0,2.76417l0.90376,-0.90377zm8.68188,7.72529c0.7633,-0.76338 0.7633,-2.00095 0,-2.76424l-0.9038,0.9038c0.26423,0.26415 0.26423,0.69249 0,0.95663l0.9038,0.9038l0,0.00001zm-9.33866,3.81026c-0.41651,0.4165 -0.53481,0.52548 -0.66286,0.59331l0.59849,1.12935c0.33737,-0.17877 0.60765,-0.45834 0.96817,-0.81894l-0.9038,-0.90372zm-2.00665,1.92469c0.50679,0.05632 0.89246,0.10583 1.26759,0.03468l-0.23814,-1.25572c-0.14238,0.02693 -0.30284,0.01576 -0.88831,-0.04925l-0.14114,1.27029zm1.34379,-1.33138c-0.09866,0.05232 -0.20463,0.08947 -0.31433,0.11034l0.23814,1.25572c0.23548,-0.04465 0.46291,-0.12449 0.67469,-0.23671l-0.59849,-1.12935l-0.00001,0zm8.16759,-7.19422l0.93013,0.93022l0.9038,-0.9038l-0.93022,-0.93017l-0.90372,0.90375l0.00001,0zm-6.60092,7.50464l3.38175,-3.38175l-0.90372,-0.90372l-3.38183,3.38175l0.9038,0.90372zm3.38175,-3.38175l2.26254,-2.26245l-0.9038,-0.9038l-2.26245,2.26254l0.90372,0.90372l-0.00001,-0.00001z" fill="black" id="svg_1" stroke="null"/>
   <path opacity="0.5" d="m15.72023,16.4209l-1.57925,-1.57925m-0.12492,3.28342l-1.57925,-1.57925" stroke-width="1.5" stroke-linecap="round" id="svg_2" stroke="black"/>
   <line fill="none" x1="5.06354" y1="19.99417" x2="11.75919" y2="20.07268" id="svg_10" stroke="#000"/>
   <line fill="none" x1="6.68942" y1="19.03068" x2="12.92006" y2="19.19739" id="svg_11" stroke-width="2" stroke="#000"/>
   <line fill="none" x1="5.12375" y1="20.65656" x2="11.52877" y2="20.7902" id="svg_12" stroke="#000"/>
   <line fill="none" x1="5.54528" y1="20.777" x2="7.49357" y2="21.7559" id="svg_13" stroke="#000"/>
  </g>
  <path id="svg_6" d="m9.53216,2.70145l-8.76571,-2.57668c-0.04401,-0.01335 -0.08859,-0.01902 -0.13315,-0.01902c-0.1229,0 -0.24311,0.04844 -0.33296,0.13816c-0.12222,0.12158 -0.16808,0.30055 -0.11913,0.46539l2.57666,8.7678c0.0529,0.18209 0.21128,0.31511 0.40042,0.33554c0.01787,0.00186 0.03518,0.00254 0.05218,0.00254c0.17011,0 0.32793,-0.0923 0.41209,-0.24326l2.13474,-3.87039l3.86968,-2.13543c0.16678,-0.09166 0.2617,-0.27441 0.24081,-0.46294c-0.0203,-0.18897 -0.15294,-0.34759 -0.33563,-0.40172l0,0.00002l0,-0.00001z" fill="#000000" stroke="null"/>
 </g>

</svg>