<svg width="24" height="24" xmlns="http://www.w3.org/2000/svg" xml:space="preserve" version="1.1" fill="#292D32">

 <g>
  <title>Layer 1</title>
  <g stroke="null" opacity="0.99" id="svg_1">
   <path stroke="null" id="svg_2" d="m3.96604,19.50704c-0.14852,-0.14852 -0.38858,-0.14852 -0.5371,0l-0.9496,0.9496c-0.32514,0.32476 -0.50443,0.75778 -0.50443,1.21815c0,0.45999 0.17929,0.89301 0.50443,1.21815s0.75778,0.50443 1.21815,0.50443c0.45999,0 0.89301,-0.17929 1.21815,-0.50443c0.67156,-0.67232 0.67156,-1.76474 0,-2.4363l-0.9496,-0.9496z"/>
   <path stroke="null" id="svg_3" d="m21.80036,4.55837c0.85198,-0.85274 0.94884,-2.22017 0.21955,-3.11318c-0.43454,-0.53254 -1.07913,-0.83831 -1.76816,-0.83831c-0.61003,0 -1.18207,0.23626 -1.61129,0.6651l-1.33932,1.3397c-0.42504,0.42504 -1.16573,0.42504 -1.5904,0l-0.22145,-0.22145c-0.31869,-0.31793 -0.87326,-0.31793 -1.19042,0.00038l-1.49468,1.49506c-0.15915,0.15915 -0.24652,0.37073 -0.24652,0.59521c0,0.22525 0.08736,0.43644 0.24652,0.59559l0.74753,0.74753l-5.79828,5.79828l-0.37946,0.37946c-0.59331,0.59331 -1.03583,1.32983 -1.28956,2.16054c-0.098,0.32097 -0.23664,0.62864 -0.40491,0.91846c-0.01064,0.01823 -0.01823,0.0376 -0.02887,0.05546c-0.00836,0.01367 -0.01899,0.02621 -0.02735,0.03988c-0.08508,0.13788 -0.17549,0.27273 -0.27501,0.40073c-0.10977,0.14054 -0.2279,0.27463 -0.35401,0.40073l-1.67624,1.67624l2.14838,2.14838l1.66181,-1.66143c0.51431,-0.51393 1.15358,-0.89453 1.84983,-1.10078c0.48962,-0.14548 0.94998,-0.37186 1.37427,-0.65371c0.28412,-0.1884 0.55457,-0.39731 0.79653,-0.63927l4.12508,-4.1247l0,0l2.03823,-2.03785l0.74715,0.74715c0.15915,0.15953 0.37073,0.2469 0.59559,0.2469c0.22487,0 0.43606,-0.08736 0.59521,-0.24652l1.49506,-1.49506c0.32818,-0.32818 0.32818,-0.86262 0,-1.19118l-0.22069,-0.22069c-0.21271,-0.21271 -0.32932,-0.49493 -0.32932,-0.79539s0.11699,-0.58268 0.32932,-0.79501l1.27589,-1.27627zm-7.60101,7.06391l-5.37172,0l5.26119,-5.26119l2.68586,2.68586l-2.57533,2.57533z"/>
  </g>
  <path stroke="null" d="m10.30288,2.9041l-9.47883,-2.78629c-0.0476,-0.01443 -0.09579,-0.02058 -0.14398,-0.02058c-0.13288,0 -0.26287,0.05238 -0.36003,0.14941c-0.13216,0.13147 -0.18176,0.32499 -0.12883,0.50325l2.78629,9.48109c0.0572,0.19692 0.22846,0.34074 0.43298,0.36285c0.01933,0.002 0.03804,0.00273 0.05643,0.00273c0.18394,0 0.35461,-0.09981 0.44562,-0.26305l2.30839,-4.18526l4.1845,-2.30916c0.18035,-0.09912 0.28298,-0.29672 0.26039,-0.5006c-0.02194,-0.20434 -0.16537,-0.37587 -0.36294,-0.43439l0,0.00001z" id="svg_4"/>
 </g>
</svg>