<svg width="24.000000000000004" height="24.000000000000004" xmlns="http://www.w3.org/2000/svg" fill="none">

 <g>
  <title>Layer 1</title>
  <path id="svg_1" fill="black" d="m10.5312,19.2911l-0.5304,-0.5303l0,0l0.5304,0.5303zm0.8018,-12.44634l0.5303,-0.53033l0,0l-0.5303,0.53033zm-1.0917,-1.09168l-0.53035,0.53033l0,0l0.53035,-0.53033zm2.1833,-2.18335l0.5304,-0.53033l0,0l-0.5304,0.53033zm1.0917,1.09167l-0.5303,0.53033c0.1406,0.14066 0.3314,0.21967 0.5303,0.21967c0.1989,0 0.3897,-0.07901 0.5303,-0.21967l-0.5303,-0.53033zm1.4556,-1.45557l-0.5303,-0.53033l0,0l0.5303,0.53033zm4.3667,7.27787l-0.5303,-0.53034c-0.2929,0.29284 -0.2929,0.76774 0,1.06064l0.5303,-0.5303zm1.0917,1.0917l-0.5304,0.5303l0,0l0.5304,-0.5303zm-15.72141,1.8934l-0.53033,-0.5303l0,0l0.53033,0.5303zm-2.2567,5.8957l0.53033,0.5303l0,0l-0.53033,-0.5303zm0.62871,-0.6288l-0.53033,-0.5303l0,0l0.53033,0.5303zm1.55464,2.8121l0.53033,0.5303l0,0l-0.53033,-0.5303zm0.62871,-0.6287l-0.53033,-0.5303l0,0l0.53033,0.5303zm-1.48563,-4.1724l-0.74541,0.0828l0,0l0.74541,-0.0828zm-0.05281,-0.4753l0.74541,-0.0829l0,0l-0.74541,0.0829zm3.52751,3.95l-0.08283,0.7454l0,0l0.08283,-0.7454zm0.47531,0.0528l0.08282,-0.7454l0,0l-0.08282,0.7454zm-2.21375,0.4039l0.48539,0.5718l0,0l-0.48539,-0.5718zm1.39221,-0.4883l0.02186,-0.7497l-0.00001,0l-0.02185,0.7497zm-3.02693,-5.7639l-0.66269,-0.3512l-0.00001,0l0.6627,0.3512zm-0.20358,0.5804l-0.73687,-0.1398l0,0l0.73687,0.1398zm-0.35472,3.4788l-0.57175,-0.4854l0,0l0.57175,0.4854zm0.48836,-1.3922l0.74968,-0.0218l0,0l-0.74968,0.0218zm5.76385,3.0269l0.35119,0.6627l0,0l-0.35119,-0.6627zm-0.58036,0.2036l0.13974,0.7369l0,0l-0.13974,-0.7369zm5.50629,-5.0011l-0.5303,-0.5303l0,0l0.5303,0.5303zm-2.6367,-9.00787l-1.0917,-1.09168l-1.06065,1.06066l1.09165,1.09168l1.0607,-1.06066zm6.9139,6.91397l-1.0916,-1.0917l-1.0607,1.0607l1.0917,1.0917l1.0606,-1.0607zm-6.8829,-9.12834l1.0917,1.09167l1.0606,-1.06066l-1.0916,-1.09167l-1.0607,1.06066zm2.1523,1.09167l1.4556,-1.45557l-1.0606,-1.06066l-1.4556,1.45557l1.0606,1.06066zm6.2172,3.30606l-1.4555,1.45557l1.0606,1.06064l1.4556,-1.45555l-1.0607,-1.06066zm-9.4612,-1.1227l5.8223,5.82231l1.0607,-1.0607l-5.8223,-5.82227l-1.0607,1.06066zm-5.56338,6.62411l6.62408,-6.62411l-1.0607,-1.06066l-6.62404,6.62407l1.06066,1.0607zm-2.2567,5.8956l0.62871,-0.6287l-1.06066,-1.0607l-0.62871,0.6287l1.06066,1.0607zm2.18335,2.1833l0.62871,-0.6287l-1.06066,-1.0606l-0.62871,0.6287l1.06066,1.0606zm-0.64183,-5.4142l-0.05282,-0.4754l-1.49082,0.1657l0.05281,0.4753l1.49083,-0.1656zm2.64645,4.3029l0.47532,0.0528l0.16564,-1.4908l-0.47531,-0.0528l-0.16565,1.4908zm-1.37591,0.4826c0.13321,-0.1332 0.17048,-0.1696 0.20569,-0.1995l-0.97078,-1.1435c-0.09278,0.0788 -0.17993,0.1667 -0.29557,0.2824l1.06066,1.0606zm1.54157,-1.9734c-0.16256,-0.0181 -0.28556,-0.0324 -0.4072,-0.0359l-0.04372,1.4994c0.04617,0.0013 0.09806,0.0065 0.28526,0.0273l0.16566,-1.4908zm-1.33588,1.7739c0.2465,-0.2093 0.56175,-0.3199 0.88496,-0.3104l0.04371,-1.4994c-0.69372,-0.0202 -1.37037,0.2171 -1.89945,0.6663l0.97078,1.1435zm-4.07841,0.8282c0.89581,0.8959 2.3482,0.8959 3.24401,0l-1.06066,-1.0606c-0.31002,0.31 -0.81267,0.31 -1.12269,0l-1.06066,1.0606zm2.2567,-9.1396c-0.42315,0.4231 -0.75127,0.7403 -0.96109,1.1362l1.32538,0.7024c0.07964,-0.1502 0.20752,-0.2891 0.69637,-0.7779l-1.06066,-1.0607zm0.29266,3.25c-0.07634,-0.6871 -0.08946,-0.8754 -0.05777,-1.0425l-1.47374,-0.2795c-0.08349,0.4403 -0.0254,0.8929 0.04069,1.4877l1.49082,-0.1657zm-1.25376,-2.1138c-0.13171,0.2486 -0.22534,0.5155 -0.27775,0.7918l1.47374,0.2795c0.02441,-0.1287 0.06804,-0.2531 0.1294,-0.3689l-1.32539,-0.7024zm17.04634,-10.33854c1.3149,1.31489 1.3149,3.44674 0,4.76163l1.0607,1.06066c1.9007,-1.90068 1.9007,-4.98227 0,-6.88295l-1.0607,1.06066zm-4.7616,0c1.3149,-1.31488 3.4468,-1.31488 4.7616,0l1.0607,-1.06066c-1.9007,-1.90067 -4.9823,-1.90067 -6.8829,0l1.0606,1.06066zm4.3977,9.49224c-0.31,0.31 -0.8126,0.31 -1.1227,0l-1.0606,1.0607c0.8958,0.8958 2.3482,0.8958 3.244,0l-1.0607,-1.0607zm-16.28867,6.0377c0.11565,-0.1157 0.20362,-0.2028 0.28237,-0.2956l-1.14349,-0.9708c-0.0299,0.0352 -0.06635,0.0725 -0.19954,0.2057l1.06066,1.0607zm-0.57802,-2.4366c0.0208,0.1872 0.02598,0.2391 0.02733,0.2853l1.49936,-0.0437c-0.00355,-0.1217 -0.0178,-0.2447 -0.03586,-0.4072l-1.49083,0.1656zm0.86039,2.141c0.44917,-0.5291 0.68652,-1.2057 0.6663,-1.8994l-1.49936,0.0437c0.00942,0.3232 -0.10117,0.6384 -0.31043,0.8849l1.14349,0.9708zm6.878,-14.87044c0.31,-0.31003 0.8127,-0.31003 1.1227,0l1.0607,-1.06066c-0.8958,-0.89581 -2.3482,-0.89581 -3.24405,0l1.06065,1.06066zm-7.78908,16.91744c-0.31003,-0.31 -0.31003,-0.8127 0,-1.1227l-1.06066,-1.0607c-0.89581,0.8958 -0.89581,2.3482 0,3.244l1.06066,-1.0606zm7.78908,-15.79475c-0.31,-0.31002 -0.31,-0.81267 0,-1.12269l-1.06065,-1.06066c-0.89581,0.89581 -0.89581,2.3482 0,3.24401l1.06065,-1.06066zm10.189,9.06635c0.8958,-0.8959 0.8958,-2.3483 0,-3.2441l-1.0607,1.0607c0.3101,0.31 0.3101,0.8127 0,1.1227l1.0607,1.0607zm-10.9598,4.4717c-0.48881,0.4888 -0.62765,0.6167 -0.77793,0.6963l0.70239,1.3254c0.39594,-0.2098 0.71314,-0.5379 1.13624,-0.9611l-1.0607,-1.0606zm-2.35499,2.2588c0.59476,0.0661 1.04739,0.1242 1.48764,0.0407l-0.27948,-1.4737c-0.1671,0.0316 -0.35541,0.0185 -1.04252,-0.0578l-0.16564,1.4908zm1.57706,-1.5625c-0.11579,0.0614 -0.24015,0.105 -0.3689,0.1295l0.27948,1.4737c0.27636,-0.0524 0.54327,-0.1461 0.79181,-0.2778l-0.70239,-1.3254zm9.58543,-8.4431l1.0916,1.0917l1.0607,-1.0607l-1.0917,-1.09164l-1.0606,1.06064zm-7.7468,8.8074l3.9688,-3.9688l-1.0606,-1.0606l-3.9689,3.9688l1.0607,1.0606zm3.9688,-3.9688l2.6553,-2.6552l-1.0607,-1.0607l-2.6552,2.6553l1.0606,1.0606z"/>
  <path id="svg_2" stroke-linecap="round" stroke-width="1.5" stroke="black" d="m14.4999,15.3222l-1.8534,-1.8534m-0.1466,3.8534l-1.8534,-1.8534" opacity="0.5"/>
  <line transform="rotate(-10.7392 5.92226 19.5618)" stroke="#000" id="svg_10" y2="20.33923" x2="9.77385" y1="18.78445" x1="2.07067" fill="none"/>
  <line transform="rotate(-10.7392 7.55752 18.4828)" stroke="#000" stroke-width="2" id="svg_11" y2="19.26024" x2="11.13137" y1="17.70546" x1="3.98366" fill="none"/>
  <line transform="rotate(-10.7392 5.82238 20.3716)" stroke="#000" id="svg_12" y2="21.14896" x2="9.50039" y1="19.59418" x1="2.14437" fill="none"/>
  <line transform="rotate(-10.7392 3.70189 21.0089)" stroke="#000" id="svg_13" y2="21.7863" x2="4.71807" y1="20.23152" x1="2.6857" fill="none"/>
 </g>
</svg>