<svg width="24" height="24" xmlns="http://www.w3.org/2000/svg" fill="none">
 <g id="Layer_1">
  <title>Layer 1</title>
  <g stroke-width="1.5" id="svg_13">
   <ellipse stroke-width="0.5" ry="1.88014" rx="1.88014" id="svg_4" cy="9.41626" cx="8.14122" stroke="#17191C" fill="none"/>
   <ellipse stroke-width="0.5" ry="1.88014" rx="1.88014" id="svg_6" cy="6.80027" cx="21.49511" stroke="#17191C" fill="none"/>
   <ellipse stroke-width="0.5" ry="1.88014" rx="1.88014" id="svg_7" cy="20.48749" cx="6.81687" stroke="#17191C" fill="none"/>
   <ellipse stroke-width="0.5" ry="1.88014" rx="1.88014" id="svg_8" cy="21.52208" cx="20.1223" stroke="#17191C" fill="none"/>
   <line stroke="#17191C" id="svg_9" y2="11.25035" x2="7.8927" y1="18.6788" x1="7.02569" fill="none"/>
   <line stroke="#17191C" id="svg_10" y2="6.92807" x2="19.74598" y1="8.68822" x1="9.90385" fill="none"/>
   <line stroke="#17191C" id="svg_11" y2="19.54428" x2="20.32637" y1="8.71297" x1="21.59911" fill="none"/>
   <line stroke="#17191C" id="svg_12" y2="20.93212" x2="8.58586" y1="21.48237" x1="18.28106" fill="none"/>
  </g>
  <path stroke="null" fill="#000000" d="m9.46848,2.63456l-8.76571,-2.57668c-0.04401,-0.01335 -0.08859,-0.01902 -0.13315,-0.01902c-0.1229,0 -0.24311,0.04844 -0.33296,0.13816c-0.12222,0.12158 -0.16808,0.30055 -0.11913,0.46539l2.57666,8.7678c0.0529,0.18209 0.21128,0.31511 0.40042,0.33554c0.01787,0.00186 0.03518,0.00254 0.05218,0.00254c0.17011,0 0.32793,-0.0923 0.41209,-0.24326l2.13474,-3.87039l3.86968,-2.13543c0.16678,-0.09166 0.2617,-0.27441 0.24081,-0.46294c-0.0203,-0.18897 -0.15294,-0.34759 -0.33563,-0.40172l0,0.00002l0,-0.00001z" id="svg_1"/>
 </g>

</svg>