<svg width="24" height="24" xmlns="http://www.w3.org/2000/svg" data-name="Layer 1" fill="#000000">

 <g>
  <title>Layer 1</title>
  <path stroke="null" id="svg_1" d="m13.39123,5.83658c-4.56206,0 -8.27414,2.76547 -8.27414,6.16529a5.67455,5.16788 0 0 0 0.51525,2.12839a2.2107,2.01331 0 0 0 -0.3272,2.10442a5.24731,4.77878 0 0 0 -1.69244,3.30254a2.92453,2.6634 0 0 0 3.00878,2.74013a0.75219,0.68503 0 0 0 0.00602,-1.37006a1.41789,1.29129 0 0 1 -1.51041,-1.37006a3.79106,3.45256 0 0 1 1.26594,-2.34692a8.141,7.4141 0 0 0 2.58003,0.29799c0.22566,0 0.43402,-0.0048 0.6341,-0.01096a9.81463,8.9383 0 0 0 3.79407,0.68983c4.56206,0 8.27414,-2.76547 8.27414,-6.16529s-3.71208,-6.16529 -8.27414,-6.16529zm-6.55161,10.06175a0.74166,0.67544 0 0 1 0,-0.95904l0,0a0.74091,0.67476 0 0 1 1.05307,0a6.3425,5.77619 0 0 1 0.78755,1.17277a5.60234,5.10212 0 0 1 -1.84062,-0.21373zm6.55161,0.89876a8.36365,7.61687 0 0 1 -2.93882,-0.48774a10.87222,9.90145 0 0 0 -1.49912,-2.33733a2.28818,2.08387 0 0 0 -2.02415,-0.5446a4.1634,3.79165 0 0 1 -0.30765,-1.42555c0,-2.64354 3.03661,-4.79522 6.76975,-4.79522s6.76975,2.15169 6.76975,4.79522s-3.03661,4.79522 -6.76975,4.79522z"/>
  <path stroke="null" id="svg_3" d="m10.36995,2.94265l-9.60902,-2.82456c-0.04825,-0.01463 -0.09711,-0.02086 -0.14596,-0.02086c-0.13471,0 -0.26648,0.0531 -0.36498,0.15146c-0.13398,0.13328 -0.18426,0.32945 -0.1306,0.51016l2.82456,9.61131c0.05799,0.19962 0.2316,0.34542 0.43893,0.36783c0.0196,0.00203 0.03856,0.00277 0.05721,0.00277c0.18647,0 0.35948,-0.10118 0.45174,-0.26666l2.3401,-4.24274l4.24197,-2.34088c0.18283,-0.10048 0.28687,-0.3008 0.26397,-0.50748c-0.02224,-0.20715 -0.16764,-0.38103 -0.36792,-0.44036z"/>
 </g>
</svg>